<svg width="24" height="24" viewBox="0 0 24 24" fill="none" xmlns="http://www.w3.org/2000/svg">
<path d="M20.5245 8.36475C19.5187 7.4985 18.903 6.28575 18.813 5.00475H20.322C20.6595 5.00475 20.8095 4.57575 20.547 4.35675L17.1915 1.7055C17.1304 1.65643 17.0567 1.62562 16.9789 1.61664C16.901 1.60766 16.8223 1.62086 16.7516 1.65474C16.681 1.68861 16.6213 1.74177 16.5796 1.80808C16.5379 1.87439 16.5157 1.95115 16.5157 2.0295L16.5233 4.99725C16.5233 7.07625 17.4315 8.72625 19.038 10.1047C19.5209 10.521 19.9099 11.0352 20.1791 11.6132C20.4483 12.1911 20.5916 12.8197 20.5995 13.4572C20.6073 14.0443 20.497 14.627 20.2751 15.1705C20.0532 15.7141 19.7244 16.2076 19.308 16.6215C18.8876 17.054 18.3845 17.3976 17.8287 17.6318C17.2729 17.8661 16.6757 17.9862 16.0725 17.985C15.3486 17.9836 14.6549 17.6948 14.1439 17.182C13.6329 16.6692 13.3466 15.9744 13.3478 15.2505V5.0055H14.1877C14.2714 5.00478 14.3532 4.98076 14.4239 4.93614C14.4947 4.89152 14.5516 4.82806 14.5883 4.7529C14.6249 4.67773 14.64 4.59383 14.6316 4.51061C14.6233 4.42738 14.5919 4.34813 14.541 4.28175L12.5662 1.7205C12.5145 1.65214 12.4476 1.5967 12.3708 1.55853C12.2941 1.52036 12.2095 1.50049 12.1238 1.50049C12.038 1.50049 11.9534 1.52036 11.8767 1.55853C11.7999 1.5967 11.733 1.65214 11.6812 1.7205L9.7065 4.28175C9.65587 4.34809 9.62468 4.42719 9.61642 4.51023C9.60816 4.59328 9.62315 4.67698 9.65972 4.75199C9.69629 4.827 9.753 4.89036 9.82351 4.935C9.89402 4.97963 9.97555 5.00378 10.059 5.00475H11.0573V15.2647C11.0579 15.6233 10.988 15.9784 10.8515 16.3099C10.7149 16.6414 10.5144 16.9427 10.2614 17.1967C10.0083 17.4507 9.70778 17.6524 9.37683 17.7902C9.04587 17.928 8.69101 17.9993 8.3325 18C7.72934 18.0012 7.1321 17.8811 6.57628 17.6468C6.02046 17.4126 5.5174 17.069 5.097 16.6365C4.248 15.7777 3.7905 14.655 3.8055 13.4722C3.81342 12.8347 3.95673 12.2061 4.22593 11.6282C4.49513 11.0502 4.88408 10.536 5.367 10.1197C6.9585 8.73375 7.86675 7.07625 7.86675 5.00475L7.87425 2.0295C7.87384 1.95137 7.85164 1.87491 7.81015 1.8087C7.76866 1.7425 7.70953 1.68918 7.6394 1.65473C7.56927 1.62029 7.49092 1.6061 7.41317 1.61374C7.33541 1.62138 7.26133 1.65056 7.19925 1.698L3.84225 4.35675C3.78302 4.40348 3.73981 4.4675 3.71865 4.53992C3.69748 4.61233 3.69941 4.68955 3.72415 4.76082C3.7489 4.83209 3.79524 4.89388 3.85673 4.9376C3.91822 4.98132 3.9918 5.00479 4.06725 5.00475H5.57625C5.52498 5.65039 5.34674 6.27955 5.05175 6.85614C4.75676 7.43273 4.35083 7.9454 3.85725 8.36475C3.12661 8.99541 2.53854 9.77434 2.13212 10.6498C1.72569 11.5252 1.51021 12.4771 1.5 13.4422C1.4775 15.2422 2.175 16.9522 3.4515 18.2482C4.7505 19.5667 6.477 20.2972 8.31675 20.2972H11.0415V21.45H13.3312V20.2972H16.0568C16.9638 20.3001 17.8621 20.1202 18.698 19.7681C19.5339 19.4161 20.2903 18.8991 20.922 18.2482C21.5515 17.6179 22.0485 16.868 22.3837 16.0426C22.7188 15.2172 22.8854 14.333 22.8735 13.4422C22.8676 12.4771 22.6548 11.5245 22.2495 10.6486C21.8441 9.77269 21.2564 8.9939 20.5245 8.36475Z" fill="#FFB02E"/>
<path d="M14.6227 22.5H9.37725C9.22932 22.5003 9.08279 22.4714 8.94604 22.415C8.80929 22.3586 8.685 22.2758 8.5803 22.1713C8.4756 22.0668 8.39253 21.9427 8.33585 21.806C8.27917 21.6694 8.25 21.5229 8.25 21.375C8.25 20.7577 8.751 20.25 9.37725 20.25H14.6227C15.2415 20.25 15.75 20.7502 15.75 21.375C15.7425 21.9998 15.2415 22.5 14.6227 22.5Z" fill="#FF9F2E"/>
</svg>
